<svg width="1600" height="2200" viewBox="0 0 1600 2200" fill="none" xmlns="http://www.w3.org/2000/svg">
  <rect width="1600" height="2200" fill="#020817"/>
  <circle cx="1180" cy="320" r="430" fill="url(#paint0_radial)" fill-opacity="0.8"/>
  <circle cx="360" cy="760" r="360" fill="url(#paint1_radial)" fill-opacity="0.85"/>
  <circle cx="1240" cy="1460" r="540" fill="url(#paint2_radial)" fill-opacity="0.7"/>
  <circle cx="250" cy="1770" r="300" fill="url(#paint3_radial)" fill-opacity="0.75"/>
  <path d="M0 1260C218 1135 415 1118 591 1209C774 1303 939 1331 1127 1238C1271 1166 1428 1135 1600 1181V2200H0V1260Z" fill="url(#paint4_linear)" fill-opacity="0.56"/>
  <path d="M0 624C129 546 281 519 455 565C627 611 756 698 973 675C1165 654 1368 515 1600 531V938C1457 900 1296 920 1117 1000C894 1098 699 1096 485 991C292 897 131 868 0 902V624Z" fill="url(#paint5_linear)" fill-opacity="0.34"/>
  <g opacity="0.55" fill="#E6F1FF">
    <circle cx="215" cy="260" r="2"/>
    <circle cx="332" cy="189" r="2"/>
    <circle cx="500" cy="323" r="2"/>
    <circle cx="690" cy="191" r="2"/>
    <circle cx="867" cy="146" r="2"/>
    <circle cx="1054" cy="234" r="2"/>
    <circle cx="1341" cy="178" r="2"/>
    <circle cx="1469" cy="290" r="2"/>
    <circle cx="1291" cy="619" r="2"/>
    <circle cx="1122" cy="724" r="2"/>
    <circle cx="1388" cy="953" r="2"/>
    <circle cx="276" cy="1122" r="2"/>
    <circle cx="604" cy="1308" r="2"/>
    <circle cx="911" cy="1190" r="2"/>
    <circle cx="1378" cy="1422" r="2"/>
    <circle cx="1268" cy="1830" r="2"/>
    <circle cx="996" cy="1686" r="2"/>
    <circle cx="698" cy="1899" r="2"/>
    <circle cx="446" cy="1661" r="2"/>
    <circle cx="171" cy="1906" r="2"/>
  </g>
  <defs>
    <radialGradient id="paint0_radial" cx="0" cy="0" r="1" gradientUnits="userSpaceOnUse" gradientTransform="translate(1180 320) rotate(90) scale(430)">
      <stop stop-color="#38BDF8"/>
      <stop offset="1" stop-color="#38BDF8" stop-opacity="0"/>
    </radialGradient>
    <radialGradient id="paint1_radial" cx="0" cy="0" r="1" gradientUnits="userSpaceOnUse" gradientTransform="translate(360 760) rotate(90) scale(360)">
      <stop stop-color="#2563EB"/>
      <stop offset="1" stop-color="#2563EB" stop-opacity="0"/>
    </radialGradient>
    <radialGradient id="paint2_radial" cx="0" cy="0" r="1" gradientUnits="userSpaceOnUse" gradientTransform="translate(1240 1460) rotate(90) scale(540)">
      <stop stop-color="#1D4ED8"/>
      <stop offset="1" stop-color="#1D4ED8" stop-opacity="0"/>
    </radialGradient>
    <radialGradient id="paint3_radial" cx="0" cy="0" r="1" gradientUnits="userSpaceOnUse" gradientTransform="translate(250 1770) rotate(90) scale(300)">
      <stop stop-color="#0EA5E9"/>
      <stop offset="1" stop-color="#0EA5E9" stop-opacity="0"/>
    </radialGradient>
    <linearGradient id="paint4_linear" x1="800" y1="1118" x2="800" y2="2200" gradientUnits="userSpaceOnUse">
      <stop stop-color="#1D4ED8"/>
      <stop offset="1" stop-color="#020817" stop-opacity="0"/>
    </linearGradient>
    <linearGradient id="paint5_linear" x1="800" y1="531" x2="800" y2="1099" gradientUnits="userSpaceOnUse">
      <stop stop-color="#38BDF8"/>
      <stop offset="1" stop-color="#38BDF8" stop-opacity="0"/>
    </linearGradient>
  </defs>
</svg>
